HIERARCHY
ROOT RootJoint
{
    OFFSET   0.000000   0.000000   0.000000
    CHANNELS 6 Xposition Yposition Zposition Xrotation Yrotation Zrotation
    JOINT lHip
    {
        OFFSET   0.100000  -0.051395   0.000000
        CHANNELS 3 Xrotation Yrotation Zrotation
        JOINT lKnee
        {
            OFFSET   0.000000  -0.410000   0.000000
            CHANNELS 3 Xrotation Yrotation Zrotation
            JOINT lAnkle
            {
                OFFSET   0.000000  -0.390000   0.000000
                CHANNELS 3 Xrotation Yrotation Zrotation
                JOINT lToeJoint
                {
                    OFFSET   0.000000  -0.050000   0.130000
                    CHANNELS 3 Xrotation Yrotation Zrotation
                    End Site
                    {
                        OFFSET   0.010000   0.002000   0.060000
                    }
                }
            }
        }
    }
    JOINT rHip
    {
        OFFSET  -0.100000  -0.051395   0.000000
        CHANNELS 3 Xrotation Yrotation Zrotation
        JOINT rKnee
        {
            OFFSET   0.000000  -0.410000   0.000000
            CHANNELS 3 Xrotation Yrotation Zrotation
            JOINT rAnkle
            {
                OFFSET   0.000000  -0.390000   0.000000
                CHANNELS 3 Xrotation Yrotation Zrotation
                JOINT rToeJoint
                {
                    OFFSET   0.000000  -0.050000   0.130000
                    CHANNELS 3 Xrotation Yrotation Zrotation
                    End Site
                    {
                        OFFSET  -0.010000   0.002000   0.060000
                    }
                }
            }
        }
    }
    JOINT pelvis_lowerback
    {
        OFFSET   0.000000   0.093605   0.000000
        CHANNELS 3 Xrotation Yrotation Zrotation
        JOINT lowerback_torso
        {
            OFFSET   0.000000   0.100000   0.000000
            CHANNELS 3 Xrotation Yrotation Zrotation
            JOINT torso_head
            {
                OFFSET   0.000000   0.282350   0.000000
                CHANNELS 3 Xrotation Yrotation Zrotation
                End Site
                {
                    OFFSET   0.000000   0.192650   0.000000
                }
            }
            JOINT lTorso_Clavicle
            {
                OFFSET   0.001000   0.157500   0.000000
                CHANNELS 3 Xrotation Yrotation Zrotation
                JOINT lShoulder
                {
                    OFFSET   0.117647   0.000000   0.000000
                    CHANNELS 3 Xrotation Yrotation Zrotation
                    JOINT lElbow
                    {
                        OFFSET   0.245000   0.000000   0.000000
                        CHANNELS 3 Xrotation Yrotation Zrotation
                        JOINT lWrist
                        {
                            OFFSET   0.240000   0.000000   0.000000
                            CHANNELS 3 Xrotation Yrotation Zrotation
                            End Site
                            {
                                OFFSET   0.116353  -0.002500   0.000000
                            }
                        }
                    }
                }
            }
            JOINT rTorso_Clavicle
            {
                OFFSET  -0.001000   0.157500   0.000000
                CHANNELS 3 Xrotation Yrotation Zrotation
                JOINT rShoulder
                {
                    OFFSET  -0.117647   0.000000   0.000000
                    CHANNELS 3 Xrotation Yrotation Zrotation
                    JOINT rElbow
                    {
                        OFFSET  -0.245000   0.000000   0.000000
                        CHANNELS 3 Xrotation Yrotation Zrotation
                        JOINT rWrist
                        {
                            OFFSET  -0.240000   0.000000   0.000000
                            CHANNELS 3 Xrotation Yrotation Zrotation
                            End Site
                            {
                                OFFSET  -0.116353  -0.002500   0.000000
                            }
                        }
                    }
                }
            }
        }
    }
}
MOTION
Frames: 8
Frame Time:   0.016667
 -0.552420   0.840504   3.772829   8.373235 -68.756353  13.939888   4.250220  17.752185  -0.454400  16.104113   2.063464   3.762993 -18.130672   4.760921 -13.351726  -0.000000  -0.000000  -0.000001 -43.036266  -6.038715   5.258221  60.358914  -9.651002  -6.771838   0.639679  -4.097694  -8.766158   0.000001   0.000005  -0.000001   1.479371  -1.359131  -0.706442   5.876339  -5.429202  -2.730544   9.528963 -13.314254   5.116820  -0.155992  -5.009647 -18.725727  34.208805 -31.232716 -34.369413   0.223126 -12.636082   2.994196  17.357498  12.863099 -14.463203  -0.957329  -1.790455  18.435831  19.444795  19.192185  47.442780  -2.088402  42.163456  -4.221483   9.208474   1.886548  -3.139348
 -0.558299   0.838430   3.782174   9.299163 -69.407206  14.678867   5.050687  17.825275  -0.884601  15.906538   2.438642   3.567112 -18.708905   4.986537 -13.035154   0.000001   0.000002  -0.000002 -43.885891  -6.971259   5.325300  57.701149  -9.303678  -5.917131   0.363645  -3.902629  -8.541423  -0.000001   0.000004  -0.000001   1.489083  -1.440801  -0.679123   5.914963  -5.755064  -2.616957   8.848697 -12.848531   5.118579  -0.120259  -4.634074 -18.357352  28.333719 -28.046908 -34.408694   0.273535 -13.538865   4.155906  16.776715  13.178910 -12.583119  -0.968204  -1.596373  18.415766  20.968127  18.983028  46.963060  -1.971541  41.044462  -4.327263   8.460582   1.465230  -1.853521
 -0.565269   0.836252   3.790855   9.749115 -69.851644  14.936827   6.006990  17.550972  -1.227416  15.597609   2.876935   3.349029 -19.194181   5.254676 -12.761712   0.000002   0.000005  -0.000001 -44.411921  -7.278393   5.434955  54.630019  -8.921997  -5.141615   0.242282  -3.758837  -8.177542  -0.000001   0.000004  -0.000001   1.527758  -1.541005  -0.652360   6.069712  -6.156166  -2.499130   8.316576 -12.369678   5.183304  -0.093283  -4.371376 -17.984950  23.079467 -25.546196 -33.895391   0.320766 -14.944733   5.024091  14.700881  12.552309 -11.195599  -0.977183  -1.478958  18.453030  22.217080  18.964532  46.620737  -1.842413  39.721520  -4.420248   8.092581   1.088274  -0.661091
 -0.572677   0.834033   3.799271   9.999794 -70.214570  14.993582   7.021439  17.134781  -1.527766  15.245270   3.341493   3.124121 -19.643178   5.538930 -12.504115   0.000002   0.000009  -0.000000 -44.808290  -7.335890   5.564864  51.392735  -8.552332  -4.383364   0.182199  -3.635650  -7.758170  -0.000000   0.000005  -0.000001   1.578055  -1.648602  -0.625741   6.271659  -6.587023  -2.378288   7.843475 -11.886186   5.275123  -0.070408  -4.153755 -17.610995  18.080453 -23.367825 -33.083938   0.380905 -16.551559   5.779675  12.057142  11.508331 -10.052111  -0.985498  -1.392218  18.513225  23.357873  19.020714  46.330540  -1.711830  38.316908  -4.504228   7.880236   0.729635   0.494207
 -0.581448   0.832040   3.806642   9.861271 -70.315692  14.569434   8.194839  16.755228  -1.661979  14.576016   3.626189   3.064919 -19.864298   5.745342 -12.407584   0.000002   0.000008  -0.000000 -45.003931  -7.059405   5.678539  47.827131  -8.478242  -4.234091   0.455536  -3.864773  -7.021865  -0.000001   0.000005  -0.000001   1.640734  -1.748659  -0.574996   6.528095  -6.986614  -2.157223   7.675517 -11.491729   5.399297  -0.064944  -4.206201 -17.317219  13.794121 -22.053206 -32.043744   0.430975 -18.151254   6.275442   7.661305  10.155413  -9.437103  -0.986371  -1.451416  18.605400  24.068745  19.126625  46.280841  -1.576495  36.634438  -4.487773   7.616722   0.478625   1.326961
 -0.590561   0.830103   3.813752   9.623356 -70.350692  14.022967   9.405994  16.383947  -1.748393  13.827167   3.865909   3.049549 -20.028440   5.932453 -12.351171   0.000002   0.000005  -0.000001 -45.149928  -6.699541   5.788965  44.179768  -8.471327  -4.239646   0.816529  -4.177312  -6.204285  -0.000002   0.000004  -0.000001   1.706592  -1.846776  -0.518129   6.799722  -7.377410  -1.909483   7.583162 -11.119606   5.531365  -0.063101  -4.326179 -17.043420   9.686670 -21.010408 -30.907769   0.486972 -19.748969   6.709955   2.852003   8.700624  -9.058654  -0.985219  -1.547096  18.705575  24.672407  19.245878  46.290263  -1.440522  34.882601  -4.443254   7.341993   0.251899   2.078294
 -0.601509   0.827458   3.820244   8.990615 -70.132523  13.126844  10.758771  16.318534  -1.680267  13.022831   3.765256   3.117062 -20.093415   5.931653 -12.457171   0.000002   0.000007  -0.000001 -45.092267  -6.169382   5.700147  40.883840  -8.330281  -4.737521   0.734157  -4.223966  -6.589774  -0.000001   0.000004  -0.000001   1.778132  -1.948031  -0.453641   7.097054  -7.779465  -1.628140   7.672066 -10.831917   5.603996  -0.068902  -4.602458 -16.798609   6.248758 -20.657568 -30.007486   0.542676 -21.409357   7.129355  -2.420209   7.475736  -8.382428  -0.979778  -1.697885  18.792900  24.999591  19.324033  46.483803  -1.311574  32.953233  -4.319521   6.713995   0.114738   2.482761
 -0.613028   0.824688   3.826539   8.259705 -69.830752  12.135785  12.148169  16.337759  -1.549124  12.202152   3.565607   3.198063 -20.098614   5.874716 -12.617148   0.000002   0.000011  -0.000002 -44.965270  -5.575365   5.568013  37.730823  -8.120596  -5.356339   0.536871  -4.187735  -7.332419   0.000000   0.000004  -0.000001   1.851817  -2.050649  -0.384218   7.405726  -8.185501  -1.324571   7.803420 -10.571937   5.653075  -0.075428  -4.918806 -16.557057   3.038103 -20.542966 -29.208106   0.608263 -23.116625   7.557380  -7.686268   6.256492  -7.635158  -0.973260  -1.858614  18.875706  25.244690  19.390624  46.733557  -1.183034  30.984589  -4.176070   5.986705  -0.001353   2.787078
